<svg id="Layer_1" data-name="Layer 1" xmlns="http://www.w3.org/2000/svg" xmlns:xlink="http://www.w3.org/1999/xlink" viewBox="0 0 1857.81 958.02"><defs><style>.cls-1{fill:none;stroke-linecap:round;stroke-miterlimit:10;stroke-width:22px;stroke:url(#linear-gradient);}.cls-2{font-size:235.63px;fill:#161616;font-family:Quicksand-Bold, Quicksand;font-weight:700;letter-spacing:0.01em;}.cls-3{letter-spacing:0.01em;}.cls-4{letter-spacing:0.02em;}.cls-5{font-size:135.5px;fill:#000606;font-family:Pacifico-Regular, Pacifico;letter-spacing:0.5em;}</style><linearGradient id="linear-gradient" x1="71" y1="1000" x2="1928.81" y2="1000" gradientUnits="userSpaceOnUse"><stop offset="0" stop-color="aqua"/><stop offset="0.01" stop-color="#04f9fc"/><stop offset="0.08" stop-color="#2fbadb"/><stop offset="0.14" stop-color="#5386c0"/><stop offset="0.2" stop-color="#6f5dab"/><stop offset="0.26" stop-color="#833f9c"/><stop offset="0.31" stop-color="#8f2d92"/><stop offset="0.34" stop-color="#93278f"/><stop offset="0.37" stop-color="#a72577"/><stop offset="0.42" stop-color="#c02159"/><stop offset="0.47" stop-color="#d41f42"/><stop offset="0.53" stop-color="#e21d31"/><stop offset="0.59" stop-color="#ea1c27"/><stop offset="0.66" stop-color="#ed1c24"/><stop offset="0.72" stop-color="#ee2e24"/><stop offset="0.83" stop-color="#f04624"/><stop offset="0.92" stop-color="#f15524"/><stop offset="1" stop-color="#f15a24"/></linearGradient></defs><path class="cls-1" d="M82,1180h93.5s31.06,0,31.5-72,31.5-72,31.5-72,31.06-1,31.5,72,0,288,0,288-.44,71,31.5,72,31.5-72,31.5-72V604s-.44-73,31.5-72,31.06,71,31.5,72,0,792,0,792-.44,71,31.5,72,31.5-72,31.5-72V675.53s-.44-73.06,31.5-72,31.5,72,31.5,72v576s-.44,71,31.48,72,31.48-72,31.48-72c1.29-15.74,5.3-38.28,18.87-54.5,0,0,10.93-13.06,28.22-18,46.22-13.19,1141.76,0,1285.76,0" transform="translate(-71 -520.99)"/><text class="cls-2" transform="translate(541.96 622.29)">R<tspan class="cls-3" x="164.23" y="0">T</tspan><tspan class="cls-4" x="312.92" y="0">G</tspan></text><text class="cls-5" transform="translate(1118.13 621.67)">Music</text></svg>