<svg id="Layer_1" data-name="Layer 1" xmlns="http://www.w3.org/2000/svg" viewBox="0 0 1883.84 699.07"><defs><style>.cls-1{fill:#333;}.cls-2{fill:#bc1e1e;}</style></defs><path class="cls-1" d="M197.41,1378.61q-9.61,2.09-27.23,5.24a216.69,216.69,0,0,1-37.91,3.14q-40.61,0-57.14-14.67t-16.55-49.24V797.13q0-19.89,10.68-30.38T99.16,750q34.17-11.51,80.63-16.23A944.23,944.23,0,0,1,275.37,729q141,0,211.45,57.1T557.3,943.81q0,66-35.24,114.72t-97.18,74.92q47,59.71,90.24,113.67t64.61,84.34q-8.57,27.26-29.9,42.44a79.44,79.44,0,0,1-47,15.19q-33.12,0-50.73-14.67t-34.71-39.81L296.73,1157.54H197.41Zm85.43-327.93q60.89,0,97.72-26.2t36.84-79.62q0-105.81-144.17-105.82a388.65,388.65,0,0,0-41.11,2.1q-19.78,2.1-36.85,4.19v205.35Z" transform="translate(-58.58 -726.93)"/><path class="cls-1" d="M1942.42,1291.65q0,26.2-11.21,40.34t-35.78,26.71q-13.89,8.4-34.71,15.2a362.77,362.77,0,0,1-45.92,11.52q-25.1,4.71-51.79,7.86a457.8,457.8,0,0,1-53.4,3.14q-75.84,0-140.43-19.38T1457,1316.8q-47.52-40.87-74.22-103.73t-26.7-149.82q0-82.75,27.24-146.16t74.75-105.29q47.51-41.89,110.53-63.39t135.63-21.48q48.06,0,87,7.86t67.28,21q28.28,13.11,43.25,31.43t15,38.24q0,21-11.75,36.67t-26.69,24.1q-27.8-17.81-67.28-33T1713.88,838q-47,0-86.5,15.19t-67.81,43.48q-28.32,28.29-44.32,70.2t-16,95.34q0,57.63,16,99.53t44.32,69.68a173.35,173.35,0,0,0,67.28,40.86q39,13.11,84.9,13.09a282.75,282.75,0,0,0,56.6-5.23q25.64-5.24,39.51-12.58V1121.92H1671.17q-5.36-8.37-9.61-22a100.77,100.77,0,0,1-4.28-30.38q0-27.24,13.35-40.86t34.71-13.63h179.41q26.68,0,42.19,14.67t15.48,40.86Z" transform="translate(-58.58 -726.93)"/><path class="cls-1" d="M1228.5,766.22q-4.8-14.15-10.15-22.52H752.73q-23.49,0-36.84,14.14t-13.35,43.48a90.67,90.67,0,0,0,4.81,30.39,144.1,144.1,0,0,0,10.14,23H896.9c.26,115.57.51,199.39,0,214.09a30,30,0,0,0,3.51,16c4.21,7.45,11.26,11.12,14.65,12.56,4.85,2,11.67,2.08,25.12,2.09H959c15.59-.5,42-1.19,76.72-2.09V854.76h147.37q23.48,0,36.85-14.67t13.34-43A95.72,95.72,0,0,0,1228.5,766.22Z" transform="translate(-58.58 -726.93)"/><rect class="cls-2" x="835.55" y="406.03" width="146.52" height="146.52" rx="17.83"/><rect class="cls-2" x="979.98" y="552.55" width="146.52" height="146.52" rx="17.83"/></svg>